<?xml version="1.0" encoding="UTF-8"?>
<svg version="1.1" xmlns="http://www.w3.org/2000/svg" width="34" height="34">
<path d="M0 0 C1.64453125 1.09765625 1.64453125 1.09765625 3.95703125 3.09765625 C3.44220206 8.95045125 2.50345933 14.42741995 0.95703125 20.09765625 C-0.03296875 20.09765625 -1.02296875 20.09765625 -2.04296875 20.09765625 C-3.8671875 17.91015625 -3.8671875 17.91015625 -5.73046875 15.09765625 C-6.66439453 13.70546875 -6.66439453 13.70546875 -7.6171875 12.28515625 C-8.08769531 11.56328125 -8.55820312 10.84140625 -9.04296875 10.09765625 C-8.99398438 10.85433594 -8.945 11.61101563 -8.89453125 12.390625 C-9.12798439 16.64807313 -11.11565113 18.10064059 -14.04296875 21.09765625 C-14.70296875 21.09765625 -15.36296875 21.09765625 -16.04296875 21.09765625 C-16.74443189 18.87284396 -17.42862829 16.64258257 -18.10546875 14.41015625 C-18.48832031 13.16878906 -18.87117188 11.92742188 -19.265625 10.6484375 C-20.01619704 7.2199451 -20.21078861 5.36992306 -19.04296875 2.09765625 C-13.91966689 -1.81223201 -5.94744223 -2.62688175 0 0 Z " fill="#585693" transform="translate(25.04296875,1.90234375)"/>
<path d="M0 0 C0.99 0 1.98 0 3 0 C4.03307771 1.76371818 5.05112049 3.53625033 6.0625 5.3125 C6.63097656 6.29863281 7.19945312 7.28476562 7.78515625 8.30078125 C9 11 9 11 8 14 C3.35601989 15.54799337 -1.32517708 15.49594333 -6 14 C-5.41892368 10.2397015 -4.34800504 7.46964968 -2.4375 4.1875 C-1.98246094 3.39730469 -1.52742187 2.60710938 -1.05859375 1.79296875 C-0.53458984 0.90544922 -0.53458984 0.90544922 0 0 Z " fill="#EDE786" transform="translate(16,19)"/>
<path d="M0 0 C1.64453125 1.09765625 1.64453125 1.09765625 3.95703125 3.09765625 C3.44220206 8.95045125 2.50345933 14.42741995 0.95703125 20.09765625 C-0.03296875 20.09765625 -1.02296875 20.09765625 -2.04296875 20.09765625 C-3.8671875 17.91015625 -3.8671875 17.91015625 -5.73046875 15.09765625 C-6.66439453 13.70546875 -6.66439453 13.70546875 -7.6171875 12.28515625 C-8.08769531 11.56328125 -8.55820312 10.84140625 -9.04296875 10.09765625 C-8.99398438 10.85433594 -8.945 11.61101563 -8.89453125 12.390625 C-9.12798439 16.64807313 -11.11565113 18.10064059 -14.04296875 21.09765625 C-14.70296875 21.09765625 -15.36296875 21.09765625 -16.04296875 21.09765625 C-16.74443189 18.87284396 -17.42862829 16.64258257 -18.10546875 14.41015625 C-18.48832031 13.16878906 -18.87117188 11.92742188 -19.265625 10.6484375 C-20.01619704 7.2199451 -20.21078861 5.36992306 -19.04296875 2.09765625 C-13.91966689 -1.81223201 -5.94744223 -2.62688175 0 0 Z M-18.04296875 3.09765625 C-17.49151604 8.33645703 -16.61374782 13.07116322 -15.04296875 18.09765625 C-14.05296875 17.76765625 -13.06296875 17.43765625 -12.04296875 17.09765625 C-11.23733237 14.99181187 -11.23733237 14.99181187 -10.85546875 12.53515625 C-10.69691406 11.70886719 -10.53835937 10.88257813 -10.375 10.03125 C-10.26542969 9.39316406 -10.15585938 8.75507813 -10.04296875 8.09765625 C-9.38296875 8.09765625 -8.72296875 8.09765625 -8.04296875 8.09765625 C-6.38673738 10.36597312 -4.95544332 12.73944745 -3.48046875 15.12890625 C-2.76890625 16.1034375 -2.76890625 16.1034375 -2.04296875 17.09765625 C-1.38296875 17.09765625 -0.72296875 17.09765625 -0.04296875 17.09765625 C0.94703125 12.80765625 1.93703125 8.51765625 2.95703125 4.09765625 C-1.55822412 0.29533594 -4.80535917 -0.46428227 -10.6953125 -0.2421875 C-13.67767011 0.18953482 -15.69858127 1.22214627 -18.04296875 3.09765625 Z " fill="#D0D0D8" transform="translate(25.04296875,1.90234375)"/>
<path d="M0 0 C0.99 0.33 1.98 0.66 3 1 C3.50604984 7.98629919 3.0333905 12.20200116 -1 18 C-1.99 18 -2.98 18 -4 18 C-2.9611908 11.8887076 -1.84269722 5.92295536 0 0 Z " fill="#82C184" transform="translate(31,11)"/>
<path d="M0 0 C0.66 0 1.32 0 2 0 C2.67364661 2.08108685 3.33866798 4.1649671 4 6.25 C4.37125 7.41015625 4.7425 8.5703125 5.125 9.765625 C6 13 6 13 6 17 C5.01 17 4.02 17 3 17 C-0.31150602 11.4414006 -1.56909729 7.48770908 -1 1 C-0.67 0.67 -0.34 0.34 0 0 Z " fill="#E4C8C7" transform="translate(1,12)"/>
<path d="M0 0 C6.95230941 -0.44534366 11.59696035 -0.67289916 17 4 C16.48517081 9.852795 15.54642808 15.3297637 14 21 C13.01 21 12.02 21 11 21 C10.34 19.68 9.68 18.36 9 17 C10.32 17.33 11.64 17.66 13 18 C13.144375 16.783125 13.28875 15.56625 13.4375 14.3125 C13.82780953 11.17329623 14.32351856 8.0924866 15 5 C10.34507678 1.43122553 5.65150436 1.31824005 0 1 C0 0.67 0 0.34 0 0 Z " fill="#D7D7DD" transform="translate(12,1)"/>
<path d="M0 0 C2.56616632 3.84924948 2.55097676 6.4349304 3 11 C2.01 11 1.02 11 0 11 C-1.75 8.625 -1.75 8.625 -3 6 C-2.67 5.34 -2.34 4.68 -2 4 C-1.01 5.485 -1.01 5.485 0 7 C0 4.69 0 2.38 0 0 Z " fill="#DEDBDA" transform="translate(4,18)"/>
<path d="M0 0 C0.99 0.33 1.98 0.66 3 1 C3 4.3 3 7.6 3 11 C2.67 11 2.34 11 2 11 C1.67 8.69 1.34 6.38 1 4 C0.34 4.99 -0.32 5.98 -1 7 C-0.67 4.69 -0.34 2.38 0 0 Z " fill="#DCE4DC" transform="translate(31,11)"/>
<path d="M0 0 C0.33 0 0.66 0 1 0 C1 3.66666667 1 7.33333333 1 11 C0.01 11 -0.98 11 -2 11 C-1.34 7.37 -0.68 3.74 0 0 Z " fill="#E2E4E2" transform="translate(29,18)"/>
<path d="M0 0 C0.99 0.495 0.99 0.495 2 1 C2.59355614 3.64860427 2.74209269 6.29197322 3 9 C1.5 7.875 1.5 7.875 0 6 C-0.1875 2.8125 -0.1875 2.8125 0 0 Z " fill="#E75E59" transform="translate(2,17)"/>
</svg>
